<svg width="48" height="48" viewBox="0 0 48 48" fill="none" xmlns="http://www.w3.org/2000/svg">
<g clip-path="url(#clip0)">
<path fill-rule="evenodd" clip-rule="evenodd" d="M24 9C15.7178 9 9 15.8868 9 24.3774C9 31.1698 13.3252 36.9245 19.2147 39C19.9509 39.0943 20.227 38.6226 20.227 38.2453C20.227 37.8679 20.227 36.9245 20.227 35.6038C16.0859 36.5472 15.1656 33.5283 15.1656 33.5283C14.5215 31.7359 13.5092 31.2642 13.5092 31.2642C12.1288 30.3208 13.6012 30.3208 13.6012 30.3208C15.0736 30.4151 15.9018 31.9245 15.9018 31.9245C17.2822 34.283 19.3988 33.6226 20.227 33.2453C20.319 32.2075 20.7791 31.5472 21.1472 31.1698C17.8344 30.7925 14.3374 29.4717 14.3374 23.5283C14.3374 21.8302 14.8896 20.5094 15.9018 19.3774C15.8098 19.0943 15.2577 17.4906 16.0859 15.4151C16.0859 15.4151 17.3742 15.0377 20.227 17.0189C21.4233 16.6415 22.7117 16.5472 24 16.5472C25.2883 16.5472 26.5767 16.7358 27.773 17.0189C30.6258 15.0377 31.9141 15.4151 31.9141 15.4151C32.7423 17.4906 32.1902 19.0943 32.0982 19.4717C33.0184 20.5094 33.6626 21.9245 33.6626 23.6226C33.6626 29.566 30.1656 30.7925 26.8528 31.1698C27.4049 31.6415 27.865 32.5849 27.865 34C27.865 36.0755 27.865 37.6792 27.865 38.2453C27.865 38.6226 28.1411 39.0943 28.8773 39C34.8589 36.9245 39.092 31.1698 39.092 24.3774C39 15.8868 32.2822 9 24 9Z" fill="white"/>
</g>
<defs>
<clipPath id="clip0">
<rect width="30" height="30" fill="white" transform="translate(9 9)"/>
</clipPath>
</defs>
</svg>
